<svg width="13" height="14" viewBox="0 0 13 14" fill="none" xmlns="http://www.w3.org/2000/svg">
<path fill-rule="evenodd" clip-rule="evenodd" d="M0 3.1818C0 2.83035 0.274734 2.54544 0.613636 2.54544H11.6591C11.998 2.54544 12.2727 2.83035 12.2727 3.1818C12.2727 3.53325 11.998 3.81816 11.6591 3.81816H0.613636C0.274734 3.81816 0 3.53325 0 3.1818Z" fill="#E34034"/>
<path fill-rule="evenodd" clip-rule="evenodd" d="M4.90838 1.27273C4.74563 1.27273 4.58955 1.33977 4.47447 1.45911C4.3594 1.57846 4.29474 1.74032 4.29474 1.90909V2.54545H7.97656V1.90909C7.97656 1.74032 7.91191 1.57846 7.79683 1.45911C7.68175 1.33977 7.52567 1.27273 7.36293 1.27273H4.90838ZM9.20384 2.54545V1.90909C9.20384 1.40277 9.00988 0.917184 8.66465 0.55916C8.31941 0.201136 7.85117 0 7.36293 0H4.90838C4.42014 0 3.9519 0.201136 3.60666 0.55916C3.26142 0.917184 3.06747 1.40277 3.06747 1.90909V2.54545H1.8402C1.5013 2.54545 1.22656 2.83036 1.22656 3.18182V12.0909C1.22656 12.5972 1.42051 13.0828 1.76575 13.4408C2.11099 13.7989 2.57923 14 3.06747 14H9.20384C9.69208 14 10.1603 13.7989 10.5056 13.4408C10.8508 13.0828 11.0447 12.5972 11.0447 12.0909V3.18182C11.0447 2.83036 10.77 2.54545 10.4311 2.54545H9.20384ZM2.45384 3.81818V12.0909C2.45384 12.2597 2.51849 12.4215 2.63357 12.5409C2.74864 12.6602 2.90473 12.7273 3.06747 12.7273H9.20384C9.36658 12.7273 9.52266 12.6602 9.63774 12.5409C9.75282 12.4215 9.81747 12.2597 9.81747 12.0909V3.81818H2.45384Z" fill="#E34034"/>
<path fill-rule="evenodd" clip-rule="evenodd" d="M4.90856 5.72719C5.24746 5.72719 5.52219 6.0121 5.52219 6.36355V10.1817C5.52219 10.5332 5.24746 10.8181 4.90856 10.8181C4.56966 10.8181 4.29492 10.5332 4.29492 10.1817V6.36355C4.29492 6.0121 4.56966 5.72719 4.90856 5.72719Z" fill="#E34034"/>
<path fill-rule="evenodd" clip-rule="evenodd" d="M7.36364 5.72719C7.70254 5.72719 7.97727 6.0121 7.97727 6.36355V10.1817C7.97727 10.5332 7.70254 10.8181 7.36364 10.8181C7.02473 10.8181 6.75 10.5332 6.75 10.1817V6.36355C6.75 6.0121 7.02473 5.72719 7.36364 5.72719Z" fill="#E34034"/>
</svg>
